<?xml version="1.0" encoding="UTF-8"?>
<svg width="24" height="24" viewBox="0 0 24 24" fill="none" xmlns="http://www.w3.org/2000/svg">
  <path d="M14.885 2C15.0367 2.68885 15.0492 3.40252 14.922 4.09685C14.7947 4.79118 14.5303 5.45359 14.143 6.04685C13.5571 6.90099 12.6875 7.49791 11.693 7.72685C11.5435 7.76435 11.3878 7.77541 11.234 7.75935C11.1848 7.75497 11.1365 7.74435 11.09 7.72785C11.0435 7.71135 10.999 7.68885 10.958 7.66085C10.917 7.63285 10.88 7.59985 10.848 7.56285C10.816 7.52585 10.789 7.48485 10.768 7.44085C10.747 7.39685 10.732 7.35035 10.724 7.30235C10.716 7.25435 10.715 7.20535 10.721 7.15685C10.727 7.10835 10.74 7.06135 10.759 7.01735C10.778 6.97335 10.803 6.93285 10.833 6.89735C10.863 6.86185 10.898 6.83185 10.937 6.80835C10.976 6.78485 11.018 6.76835 11.062 6.75935C11.106 6.75035 11.151 6.74885 11.195 6.75485C12.0164 6.84675 12.8452 6.64749 13.5305 6.19085C14.2159 5.73421 14.7143 5.04775 14.943 4.25685C15.0741 3.78457 15.1138 3.29262 15.06 2.80685C15.0352 2.60557 15.0275 2.40235 15.037 2.19985L14.885 2Z" fill="currentColor"/>
  <path d="M11.995 8C13.795 8 15.885 11.092 15.885 14.092C15.885 18.592 13.495 22 11.995 22C10.495 22 8.10498 18.592 8.10498 14.092C8.10498 11.092 10.195 8 11.995 8Z" fill="currentColor"/>
</svg> 