<?xml version="1.0" encoding="UTF-8"?>
<svg width="24" height="24" viewBox="0 0 24 24" fill="none" xmlns="http://www.w3.org/2000/svg">
  <path d="M3.609 2.324C3.229 2.524 3 2.904 3 3.404V20.597C3 21.097 3.229 21.477 3.609 21.677L13.686 12L3.609 2.324Z" fill="currentColor"/>
  <path d="M14.686 13L17.698 9.988L5.864 3.574C5.664 3.454 5.444 3.394 5.224 3.394L14.686 13Z" fill="currentColor"/>
  <path d="M14.686 11L5.224 20.606C5.444 20.606 5.664 20.546 5.864 20.426L17.698 14.012L14.686 11Z" fill="currentColor"/>
  <path d="M18.805 10.691L15.793 13L18.805 15.309C19.185 15.109 19.414 14.729 19.414 14.229V11.771C19.414 11.271 19.185 10.891 18.805 10.691Z" fill="currentColor"/>
</svg> 