<svg width="400" height="300" viewBox="0 0 400 300" fill="none" xmlns="http://www.w3.org/2000/svg">
  <rect width="400" height="300" fill="#f8fffe"/>
  <circle cx="200" cy="150" r="80" fill="#10b981" opacity="0.1"/>
  <circle cx="200" cy="150" r="60" fill="#10b981" opacity="0.2"/>
  <circle cx="200" cy="150" r="40" fill="#10b981" opacity="0.3"/>
  
  <!-- Bank Building -->
  <rect x="160" y="110" width="80" height="80" fill="#10b981"/>
  
  <!-- Bank columns -->
  <rect x="170" y="120" width="8" height="60" fill="white"/>
  <rect x="185" y="120" width="8" height="60" fill="white"/>
  <rect x="200" y="120" width="8" height="60" fill="white"/>
  <rect x="215" y="120" width="8" height="60" fill="white"/>
  <rect x="230" y="120" width="8" height="60" fill="white"/>
  
  <!-- Bank roof -->
  <polygon points="150,120 200,100 250,120" fill="#10b981"/>
  
  <!-- Bank door -->
  <rect x="190" y="160" width="20" height="30" fill="white"/>
  
  <!-- Credit card -->
  <rect x="120" y="200" width="40" height="25" rx="4" fill="#10b981"/>
  <rect x="125" y="205" width="30" height="4" rx="1" fill="white"/>
  <rect x="125" y="212" width="15" height="3" rx="1" fill="white"/>
  
  <!-- ATM -->
  <rect x="260" y="180" width="30" height="40" rx="4" fill="#10b981"/>
  <rect x="265" y="185" width="20" height="12" rx="2" fill="white"/>
  <rect x="265" y="200" width="20" height="8" rx="1" fill="white"/>
  <rect x="265" y="212" width="8" height="4" rx="1" fill="white"/>
  
  <!-- Decorative elements -->
  <circle cx="100" cy="80" r="4" fill="#10b981" opacity="0.6"/>
  <circle cx="300" cy="240" r="6" fill="#10b981" opacity="0.4"/>
  <circle cx="340" cy="100" r="3" fill="#10b981" opacity="0.8"/>
  <circle cx="60" cy="200" r="5" fill="#10b981" opacity="0.5"/>
</svg> 