<svg width="400" height="300" viewBox="0 0 400 300" fill="none" xmlns="http://www.w3.org/2000/svg">
  <rect width="400" height="300" fill="#f8fffe"/>
  <circle cx="200" cy="150" r="80" fill="#10b981" opacity="0.1"/>
  <circle cx="200" cy="150" r="60" fill="#10b981" opacity="0.2"/>
  <circle cx="200" cy="150" r="40" fill="#10b981" opacity="0.3"/>
  
  <!-- Brain/Knowledge Icon -->
  <path d="M160 130 Q160 110 180 110 Q200 100 220 110 Q240 110 240 130 Q240 150 220 160 Q200 170 180 160 Q160 150 160 130 Z" fill="#10b981"/>
  
  <!-- Neural network lines -->
  <path d="M180 140 L200 150 L220 140" stroke="white" stroke-width="2" fill="none"/>
  <path d="M190 130 L200 140 L210 130" stroke="white" stroke-width="2" fill="none"/>
  <path d="M185 155 L200 160 L215 155" stroke="white" stroke-width="2" fill="none"/>
  
  <!-- Knowledge nodes -->
  <circle cx="180" cy="140" r="3" fill="white"/>
  <circle cx="200" cy="150" r="3" fill="white"/>
  <circle cx="220" cy="140" r="3" fill="white"/>
  <circle cx="190" cy="130" r="2" fill="white"/>
  <circle cx="210" cy="130" r="2" fill="white"/>
  <circle cx="185" cy="155" r="2" fill="white"/>
  <circle cx="215" cy="155" r="2" fill="white"/>
  
  <!-- Surrounding elements representing different topics -->
  <!-- Calculator (Basic) -->
  <rect x="100" y="80" width="20" height="20" rx="2" fill="#10b981" opacity="0.6"/>
  <rect x="102" y="82" width="16" height="2" rx="1" fill="white"/>
  <rect x="102" y="86" width="3" height="2" rx="1" fill="white"/>
  <rect x="107" y="86" width="3" height="2" rx="1" fill="white"/>
  <rect x="112" y="86" width="3" height="2" rx="1" fill="white"/>
  
  <!-- Chart (Investment) -->
  <rect x="280" y="200" width="25" height="15" rx="2" fill="#10b981" opacity="0.6"/>
  <rect x="283" y="210" width="2" height="4" fill="white"/>
  <rect x="287" y="208" width="2" height="6" fill="white"/>
  <rect x="291" y="206" width="2" height="8" fill="white"/>
  <rect x="295" y="204" width="2" height="10" fill="white"/>
  <rect x="299" y="202" width="2" height="12" fill="white"/>
  
  <!-- Wallet (Personal) -->
  <rect x="320" y="100" width="18" height="12" rx="2" fill="#10b981" opacity="0.6"/>
  <rect x="322" y="102" width="14" height="8" rx="1" fill="white"/>
  <rect x="324" y="104" width="10" height="1" fill="#10b981"/>
  <rect x="324" y="106" width="10" height="1" fill="#10b981"/>
  
  <!-- Bank (Banking) -->
  <rect x="60" y="200" width="20" height="15" rx="1" fill="#10b981" opacity="0.6"/>
  <rect x="63" y="203" width="2" height="10" fill="white"/>
  <rect x="67" y="203" width="2" height="10" fill="white"/>
  <rect x="71" y="203" width="2" height="10" fill="white"/>
  <rect x="75" y="203" width="2" height="10" fill="white"/>
  <polygon points="58,203 70,198 82,203" fill="#10b981" opacity="0.6"/>
  
  <!-- Connection lines -->
  <path d="M120 100 Q160 120 180 140" stroke="#10b981" stroke-width="1" fill="none" opacity="0.4"/>
  <path d="M290 210 Q240 180 220 140" stroke="#10b981" stroke-width="1" fill="none" opacity="0.4"/>
  <path d="M330 110 Q260 130 220 140" stroke="#10b981" stroke-width="1" fill="none" opacity="0.4"/>
  <path d="M80 210 Q140 180 180 140" stroke="#10b981" stroke-width="1" fill="none" opacity="0.4"/>
</svg> 